<?xml version="1.0" encoding="UTF-8"?><svg id="Layer_2" xmlns="http://www.w3.org/2000/svg" xmlns:xlink="http://www.w3.org/1999/xlink" viewBox="0 0 40 40"><defs><style>.cls-1{fill:none;}.cls-2{clip-path:url(#clippath);}.cls-3{fill:#ff870a;}</style><clipPath id="clippath"><rect class="cls-1" width="40" height="40"/></clipPath></defs><g id="Layer_1-2"><g id="Group_30261"><g class="cls-2"><g id="Group_30260"><path id="Path_31107" class="cls-3" d="m20.15,30c.8.03,1.47-.6,1.5-1.41,0-.03,0-.06,0-.09v-9.05c0-.39-.16-.76-.45-1.02-.28-.28-.66-.43-1.05-.43-.8-.03-1.47.6-1.5,1.41,0,.03,0,.06,0,.09v9.05c0,.39.16.76.45,1.02.28.28.66.43,1.05.43m-.15-15.7c.44.01.86-.15,1.17-.45.32-.3.49-.72.48-1.15,0-.45-.16-.88-.48-1.2-.62-.65-1.66-.67-2.31-.04-.01.01-.03.03-.04.04-.31.32-.48.75-.48,1.2-.01.43.16.85.48,1.15.32.3.74.46,1.18.45m0,25.7c-2.71.02-5.39-.49-7.9-1.53-4.8-1.97-8.61-5.78-10.58-10.57C.49,25.39-.02,22.71,0,20c-.02-2.69.5-5.36,1.52-7.85.98-2.37,2.41-4.53,4.23-6.35C9.53,2.04,14.67-.05,20,0c10.96-.09,19.91,8.72,20,19.68,0,.11,0,.21,0,.32.05,5.33-2.04,10.47-5.8,14.25-1.82,1.81-3.98,3.25-6.35,4.22-2.49,1.03-5.16,1.55-7.85,1.53m0-3c4.52.06,8.86-1.75,12-5,3.25-3.14,5.06-7.48,5-12,.06-4.52-1.75-8.86-5-12-3.14-3.25-7.48-5.06-12-5-4.52-.06-8.86,1.75-12,5-3.25,3.14-5.06,7.48-5,12-.06,4.52,1.75,8.86,5,12,3.14,3.25,7.48,5.06,12,5"/></g></g></g></g></svg>