<?xml version="1.0" encoding="UTF-8"?><svg id="Layer_2" xmlns="http://www.w3.org/2000/svg" viewBox="0 0 31.74 22.83"><defs><style>.cls-1{fill:#fff;}</style></defs><g id="Layer_1-2"><g id="Group_30191"><path id="Path_31082" class="cls-1" d="m31.74,18.7c-.09-5.51-1.43-10.93-3.91-15.85-2.19-1.72-4.86-2.72-7.64-2.85l-.38.44c2.47.66,4.78,1.83,6.77,3.45-2.53-1.39-5.31-2.28-8.18-2.61-1.83-.2-3.67-.18-5.49.05-.16,0-.31.02-.46.05-2.13.24-4.22.82-6.17,1.71-1.01.46-1.6.79-1.6.79C6.77,2.19,9.21.97,11.82.33l-.27-.33c-2.78.14-5.45,1.13-7.64,2.85C1.43,7.77.09,13.19,0,18.7c0,0,2.28,3.94,8.29,4.13,0,0,1.01-1.22,1.82-2.26-1.91-.48-3.59-1.62-4.76-3.21,0,0,.27.19.76.46.03.03.07.06.11.08.08.05.16.08.24.14.64.35,1.3.66,1.98.92,1.29.51,2.63.9,3.99,1.17,2.32.45,4.71.46,7.04.03,1.35-.24,2.68-.63,3.94-1.17,1.1-.41,2.15-.95,3.12-1.6-1.21,1.62-2.95,2.77-4.92,3.23.82,1.03,1.79,2.2,1.79,2.2h0c6.01-.19,8.32-4.13,8.32-4.13m-20.95-2.53c-1.59-.08-2.83-1.42-2.77-3.02-.07-1.6,1.17-2.95,2.77-3.02,1.59.06,2.83,1.39,2.77,2.98,0,.01,0,.03,0,.04.07,1.6-1.17,2.95-2.77,3.02m9.92,0c-1.59-.08-2.83-1.42-2.77-3.02-.07-1.6,1.17-2.95,2.77-3.02,1.6.07,2.84,1.42,2.77,3.02.07,1.6-1.17,2.95-2.77,3.02"/></g></g></svg>