<?xml version="1.0" encoding="UTF-8"?><svg id="Layer_1" xmlns="http://www.w3.org/2000/svg" xmlns:xlink="http://www.w3.org/1999/xlink" viewBox="0 0 145 30"><defs><style>.cls-1{fill:url(#linear-gradient);}.cls-2{fill:#fff;}.cls-3{fill:url(#linear-gradient-3);}.cls-4{fill:url(#linear-gradient-4);}.cls-5{fill:url(#linear-gradient-2);}.cls-6{fill:url(#linear-gradient-6);}.cls-7{fill:url(#linear-gradient-5);}</style><linearGradient id="linear-gradient" x1="-858.15" y1="784.67" x2="-857.14" y2="784.67" gradientTransform="translate(7024.8 8150.44) scale(8.16 -10.37)" gradientUnits="userSpaceOnUse"><stop offset="0" stop-color="#966c54"/><stop offset=".24" stop-color="#8d634a"/><stop offset=".66" stop-color="#744831"/><stop offset="1" stop-color="#592d19"/></linearGradient><linearGradient id="linear-gradient-2" x1="-857.17" y1="784.69" x2="-858.23" y2="784.69" gradientTransform="translate(7014.7 8153.81) scale(8.16 -10.37)" xlink:href="#linear-gradient"/><linearGradient id="linear-gradient-3" x1="-856.33" y1="800.79" x2="-855.85" y2="800.21" gradientTransform="translate(6469.09 11598.15) scale(7.55 -14.48)" gradientUnits="userSpaceOnUse"><stop offset="0" stop-color="#ffe79a"/><stop offset=".17" stop-color="#fddf90"/><stop offset=".45" stop-color="#ffcd76"/><stop offset=".82" stop-color="#faae4c"/><stop offset="1" stop-color="#f89d37"/></linearGradient><linearGradient id="linear-gradient-4" x1="-855.8" y1="800.8" x2="-856.28" y2="800.21" gradientTransform="translate(6491.63 11599.78) scale(7.54 -14.48)" xlink:href="#linear-gradient-3"/><linearGradient id="linear-gradient-5" x1="-848.77" y1="793.35" x2="-847.77" y2="793.35" gradientTransform="translate(4727.06 9747.68) scale(5.55 -12.27)" xlink:href="#linear-gradient-3"/><linearGradient id="linear-gradient-6" x1="-871.31" y1="709.19" x2="-871.31" y2="707.96" gradientTransform="translate(22233.99 3133.5) scale(25.5 -4.39)" xlink:href="#linear-gradient-3"/></defs><g id="menu_logo"><g id="Group_29815"><g id="Group_29813"><path id="Path_30425" class="cls-1" d="m24.05,21.77h6.61c.85,0,1.54-.69,1.55-1.54,0-.15-.02-.3-.06-.44-1.19-3.94-4.2-7.06-8.1-8.39v10.37Z"/><path id="Path_30426" class="cls-5" d="m15.88,11.4c-3.9,1.33-6.92,4.46-8.1,8.4-.24.81.22,1.66,1.03,1.91.14.04.29.06.44.06h6.63v-10.37Z"/><g id="Group_29812"><path id="Path_30427" class="cls-3" d="m10.51,12.64c-1.24,1.1-2.29,2.39-3.11,3.84-.17.3-.56.4-.86.23-.07-.04-.13-.09-.17-.15-1.98-2.42-3.2-6.75-3.2-9.98,0-1.29.19-2.57.56-3.81.1-.33.45-.52.78-.42.22.07.39.24.43.47.76,3.46,2.77,7.13,5.48,8.83.29.18.38.57.2.86-.03.05-.07.1-.11.14h0Z"/><path id="Path_30440" class="cls-4" d="m29.44,12.64c1.24,1.1,2.29,2.39,3.11,3.84.17.3.56.4.86.23.07-.04.13-.09.17-.15,1.98-2.42,3.2-6.75,3.2-9.98,0-1.29-.19-2.57-.55-3.81-.1-.33-.45-.52-.78-.43-.22.06-.39.25-.44.47-.76,3.46-2.78,7.13-5.48,8.83-.29.18-.38.57-.2.86.03.05.07.1.11.14h0Z"/></g><path id="Path_30429" class="cls-7" d="m20.59,9.47h-1.18c-1.21,0-2.18.98-2.18,2.18v10.08h5.55v-10.08c0-1.21-.98-2.18-2.18-2.18Zm-.66,10.5c-.58,0-1.06-.47-1.06-1.06s.47-1.06,1.06-1.06c.58,0,1.06.47,1.06,1.06,0,.58-.48,1.06-1.06,1.06h0,0Zm0-3.1c-.58,0-1.06-.47-1.06-1.06s.47-1.06,1.06-1.06c.58,0,1.06.47,1.06,1.06,0,.58-.48,1.06-1.06,1.06h0,0Zm0-3.1c-.58,0-1.06-.47-1.06-1.06s.47-1.06,1.06-1.06c.58,0,1.06.47,1.06,1.06,0,.58-.48,1.06-1.06,1.05h0Z"/><path id="Path_30430" class="cls-6" d="m30.52,23.3H9.41c-1.21,0-2.19.98-2.19,2.19s.98,2.19,2.19,2.19h21.11c1.21,0,2.19-.98,2.19-2.19s-.98-2.19-2.19-2.19Zm-19.78,3.18c-.58,0-1.06-.47-1.06-1.06s.47-1.06,1.06-1.06,1.06.47,1.06,1.06-.47,1.06-1.06,1.06h0Zm4.62,0c-.58,0-1.06-.47-1.06-1.06s.47-1.06,1.06-1.06,1.06.47,1.06,1.06-.47,1.06-1.06,1.06h0,0Zm4.61,0c-.58,0-1.06-.47-1.06-1.06s.47-1.06,1.06-1.06,1.06.47,1.06,1.06-.47,1.06-1.06,1.06h0,0Zm4.61,0c-.58,0-1.06-.47-1.06-1.06s.47-1.06,1.06-1.06,1.06.47,1.06,1.06-.47,1.06-1.06,1.06h0,0Zm4.61,0c-.58,0-1.06-.47-1.06-1.06,0-.58.47-1.06,1.06-1.06s1.06.47,1.06,1.06c0,.58-.47,1.06-1.06,1.06h0Z"/></g><g id="Group_29814"><path id="Path_30431" class="cls-2" d="m42.61,9.34h2.78v5.52l5.08-5.52h3.41l-5.16,5.35,5.37,7.26h-3.33l-3.91-5.37-1.46,1.51v3.86h-2.78v-12.62h0Z"/><path id="Path_30432" class="cls-2" d="m55.9,9.34h2.78v12.62h-2.78v-12.62Z"/><path id="Path_30433" class="cls-2" d="m61.83,9.34h2.56l5.91,7.77v-7.77h2.74v12.62h-2.36l-6.11-8.02v8.02h-2.74v-12.62h0Z"/><path id="Path_30434" class="cls-2" d="m75.51,15.69v-.04c-.03-3.58,2.85-6.5,6.43-6.53.06,0,.13,0,.19,0,1.82-.1,3.6.53,4.96,1.73l-1.75,2.11c-.89-.85-2.07-1.31-3.3-1.28-2.08.09-3.7,1.85-3.62,3.93v.04c-.12,2.08,1.47,3.87,3.56,3.99.09,0,.18,0,.27,0,.93.03,1.84-.23,2.61-.76v-1.8h-2.79v-2.4h5.48v5.48c-1.5,1.3-3.41,2.01-5.39,2-3.48.18-6.45-2.49-6.63-5.97,0-.17-.01-.35,0-.52h0Z"/><path id="Path_30435" class="cls-2" d="m90.56,9.34h8.89v.86h-7.95v5.17h7.14v.86h-7.14v5.71h-.94v-12.62Z"/><path id="Path_30436" class="cls-2" d="m102.38,9.34h.94v11.75h7.41v.86h-8.35v-12.62Z"/><path id="Path_30437" class="cls-2" d="m111.99,15.69v-.04c-.1-3.5,2.66-6.42,6.17-6.52,3.5-.1,6.42,2.66,6.52,6.17,0,.11,0,.21,0,.32v.04c.1,3.5-2.66,6.42-6.17,6.52-3.5.1-6.42-2.66-6.52-6.17,0-.11,0-.21,0-.32Zm11.72,0v-.04c.12-3.01-2.22-5.55-5.24-5.67-.05,0-.1,0-.15,0-2.98.02-5.38,2.46-5.36,5.44,0,.07,0,.13,0,.2v.04c-.12,3.01,2.23,5.55,5.24,5.67.05,0,.1,0,.15,0,2.98-.02,5.38-2.46,5.36-5.44,0-.07,0-.14,0-.2h0Z"/><path id="Path_30438" class="cls-2" d="m127.87,9.34h.94v8.29l8.04-8.29h1.28l-5.52,5.57,5.75,7.05h-1.23l-5.19-6.38-3.14,3.17v3.21h-.94v-12.62h0Z"/><path id="Path_30439" class="cls-2" d="m140.89,9.34h.94v12.62h-.94v-12.62Z"/></g></g></g></svg>