<?xml version="1.0" encoding="UTF-8"?><svg id="Layer_1" xmlns="http://www.w3.org/2000/svg" xmlns:xlink="http://www.w3.org/1999/xlink" viewBox="0 0 24 24"><defs><style>.cls-1{fill:none;}.cls-2{clip-path:url(#clippath);}.cls-3{fill:#fff;}</style><clipPath id="clippath"><rect class="cls-1" x=".18" y="3.5" width="23.64" height="17"/></clipPath></defs><g id="Group_30211"><g class="cls-2"><g id="Group_30191"><path id="Path_31082" class="cls-3" d="M23.82,17.42c-.07-4.1-1.06-8.14-2.91-11.8-1.63-1.28-3.62-2.02-5.69-2.12l-.28,.32c1.84,.49,3.56,1.37,5.04,2.57-1.88-1.04-3.95-1.7-6.09-1.94-1.36-.15-2.73-.14-4.09,.04-.12,0-.23,.02-.34,.04-1.59,.18-3.14,.61-4.59,1.28-.75,.34-1.19,.59-1.19,.59,1.56-1.26,3.37-2.17,5.32-2.65l-.2-.24c-2.07,.1-4.06,.84-5.69,2.12C1.24,9.29,.25,13.32,.18,17.42c1.42,1.99,3.73,3.14,6.17,3.08,0,0,.75-.91,1.36-1.68-1.42-.36-2.68-1.2-3.54-2.39,0,0,.2,.14,.57,.34,.02,.03,.05,.05,.08,.06,.06,.04,.12,.06,.18,.1,.48,.26,.97,.49,1.48,.69,.96,.38,1.96,.67,2.97,.88,1.73,.33,3.51,.34,5.24,.02,1.01-.18,1.99-.47,2.93-.87,.82-.31,1.6-.71,2.33-1.19-.9,1.21-2.2,2.06-3.66,2.41,.61,.77,1.34,1.64,1.34,1.64h0c2.45,.06,4.76-1.09,6.19-3.08m-15.6-1.88c-1.19-.06-2.11-1.06-2.07-2.25-.05-1.19,.87-2.2,2.06-2.25,0,0,0,0,0,0,1.18,.04,2.11,1.03,2.07,2.22,0,.01,0,.02,0,.04,.05,1.19-.87,2.2-2.06,2.25,0,0,0,0,0,0m7.39,0c-1.19-.06-2.11-1.06-2.07-2.25-.05-1.19,.87-2.2,2.06-2.25,0,0,0,0,0,0,1.19,.05,2.11,1.05,2.07,2.24,0,0,0,0,0,0,.05,1.19-.87,2.2-2.06,2.25,0,0,0,0,0,0"/></g></g></g></svg>