<?xml version="1.0" encoding="UTF-8"?><svg id="Layer_1" xmlns="http://www.w3.org/2000/svg" viewBox="0 0 24 24"><defs><style>.cls-1{fill:#fff;}</style></defs><g id="tootericon_twitter"><path id="Path_317" class="cls-1" d="M23.34,5.51c-.85,.35-1.75,.58-2.67,.68,.95-.51,1.68-1.36,2.05-2.37-.92,.5-1.92,.85-2.95,1.04-.91-.88-2.13-1.37-3.4-1.35-2.47-.1-4.55,1.82-4.65,4.29,0,.33,.04,.66,.12,.98-3.67-.14-7.13-1.76-9.59-4.48-.41,.64-.63,1.39-.63,2.16,.02,1.47,.8,2.82,2.07,3.57-.73-.02-1.45-.2-2.11-.54v.05c.07,2.12,1.64,3.89,3.73,4.21-.69,.17-1.4,.2-2.1,.07,.69,1.8,2.42,2.99,4.34,2.98-1.68,1.21-3.71,1.85-5.78,1.84-.37,0-.74-.02-1.11-.06,2.16,1.27,4.62,1.94,7.13,1.93,8.56,0,13.23-6.54,13.23-12.21,0-.19,0-.37-.01-.56,.9-.6,1.69-1.35,2.32-2.22"/></g></svg>