<?xml version="1.0" encoding="UTF-8"?><svg id="Layer_1" xmlns="http://www.w3.org/2000/svg" viewBox="0 0 24 24"><defs><style>.cls-1{fill:#fff;}</style></defs><g id="Group_30212"><path id="Path_31075" class="cls-1" d="M3.66,13.12l.07-.1,3.9-6.1c.04-.06,.12-.08,.18-.04,.02,.01,.04,.03,.05,.06,.65,1.46,1.21,3.28,.95,4.41-.18,.59-.44,1.16-.77,1.68-.05,.08-.09,.17-.15,.25-.02,.04-.07,.06-.11,.06H3.77c-.07,0-.13-.06-.14-.13,0-.03,0-.05,.02-.07"/><path id="Path_31076" class="cls-1" d="M21.44,14.37v.99c0,.06-.03,.11-.08,.13-.68,.27-1.3,.69-1.8,1.23-1.13,1.56-1.98,3.79-3.9,3.79H7.68c-2.83,0-5.13-2.31-5.12-5.14,0,0,0,0,0,0v-.09c0-.08,.06-.14,.14-.14H7.14c.08,0,.15,.07,.15,.16,0,0,0,0,0,.01-.03,.29,.02,.59,.16,.85,.26,.53,.81,.87,1.4,.87h2.2v-1.72h-2.17c-.08,0-.14-.06-.14-.14,0-.03,0-.06,.03-.08,.02-.04,.05-.07,.08-.12,.21-.29,.5-.75,.79-1.27,.21-.35,.39-.72,.55-1.1,.03-.07,.06-.14,.08-.2,.04-.12,.09-.23,.12-.34,.03-.09,.06-.19,.08-.29,.07-.33,.11-.66,.11-1,0-.14,0-.28-.02-.42s-.02-.3-.04-.45c-.01-.13-.04-.26-.06-.4-.03-.2-.08-.4-.13-.6l-.02-.08c-.04-.14-.07-.27-.11-.4-.12-.43-.27-.85-.42-1.24-.06-.16-.12-.31-.18-.45-.09-.23-.19-.43-.27-.62-.04-.09-.08-.17-.12-.25s-.09-.19-.13-.27c-.03-.07-.07-.13-.09-.19l-.27-.5s0-.1,.04-.12c.02-.01,.04-.01,.06,0l1.68,.46h.01l.22,.06,.24,.07,.09,.02v-1c0-.48,.38-.88,.86-.88,0,0,0,0,.01,0,.23,0,.45,.09,.61,.26,.16,.16,.25,.39,.25,.62v1.49l.18,.05s.03,.01,.04,.02c.04,.03,.11,.08,.19,.14,.06,.05,.13,.11,.21,.17,.16,.13,.36,.3,.57,.49,.06,.05,.11,.1,.16,.15,.27,.25,.58,.55,.87,.89,.08,.09,.16,.19,.24,.29s.17,.2,.24,.3c.1,.13,.21,.27,.3,.41,.04,.07,.09,.14,.14,.2,.12,.18,.22,.37,.33,.56,.04,.09,.09,.18,.12,.27,.11,.24,.2,.5,.26,.76,.02,.06,.03,.11,.04,.17h0c.02,.09,.03,.17,.03,.25,.03,.26,.01,.53-.04,.78-.02,.11-.06,.22-.09,.33-.04,.11-.08,.22-.12,.32-.1,.22-.21,.44-.34,.64-.04,.08-.09,.16-.14,.23s-.11,.16-.16,.23c-.07,.09-.14,.19-.22,.28-.07,.09-.14,.18-.21,.27-.11,.12-.21,.24-.31,.36-.06,.07-.13,.15-.2,.22s-.14,.14-.2,.21c-.11,.11-.19,.19-.27,.25l-.17,.16s-.06,.04-.09,.03h-1.34v1.72h1.69c.38,0,.74-.13,1.03-.38,.37-.32,.72-.66,1.04-1.03,.02-.02,.04-.03,.06-.04l4.66-1.35c.07-.02,.15,.02,.17,.09,0,.01,0,.03,0,.04"/></g></svg>