<?xml version="1.0" encoding="UTF-8"?><svg id="Layer_1" xmlns="http://www.w3.org/2000/svg" viewBox="0 0 100 100"><defs><style>.cls-1{fill:#fff;}</style></defs><g id="Group_30150"><g id="Group_29871"><g id="Group_29866"><path id="Path_30465" class="cls-1" d="m50,94.8c-1.39,0-2.76-.35-3.98-1.03l-33.92-17.15c-2.76-1.56-4.37-4.58-4.14-7.74l.02-.15,6.41-38.95c.22-2.57,1.64-4.89,3.83-6.25L45.68,6.45c2.64-1.66,6-1.66,8.64,0l27.46,17.08c2.19,1.37,3.61,3.68,3.83,6.25l6.42,39.03v.08c.24,3.16-1.38,6.18-4.14,7.74l-.07.04-33.85,17.11c-1.22.67-2.59,1.03-3.98,1.03m-36.22-21.23l33.92,17.14c1.43.8,3.18.8,4.61,0l.07-.04,33.85-17.11c1.54-.89,2.45-2.58,2.35-4.36l-6.42-39.02v-.08c-.12-1.49-.94-2.84-2.21-3.64l-27.47-17.08c-1.52-.95-3.44-.95-4.96,0l-27.47,17.08c-1.27.79-2.09,2.14-2.2,3.64l-.02.15-6.41,38.94c-.1,1.78.81,3.46,2.35,4.36"/><path id="Path_30466" class="cls-1" d="m24.29,44.38h3.03l-2.43,9.06h-3.03l2.43-9.06Z"/><path id="Path_30467" class="cls-1" d="m28.32,44.38h2.83l2.06,4.32,1.17-4.32h3l-2.43,9.06h-2.69l-2.15-4.5-1.22,4.5h-3l2.43-9.06Z"/><path id="Path_30468" class="cls-1" d="m40.71,49.6c-.02-1.39.53-2.73,1.51-3.71,1.2-1.14,2.81-1.76,4.47-1.7,1.42-.05,2.79.5,3.79,1.5l-1.89,1.94c-.58-.52-1.32-.81-2.1-.82-.74-.03-1.47.25-2.01.76-.49.5-.76,1.18-.74,1.88-.04.9.66,1.65,1.55,1.69.07,0,.14,0,.21,0,.27,0,.54-.04.79-.14l.3-.97h-1.49l.49-1.94h4.36l-1.29,4.62c-1.06.61-2.26.93-3.48.93-2.25,0-4.48-1.19-4.48-4.04"/><path id="Path_30469" class="cls-1" d="m55,44.32h3l1.37,9.12h-3.22l-.15-1.22h-3.17l-.79,1.22h-3.3l6.26-9.12Zm.83,5.76l-.25-2.2-1.41,2.2h1.66Z"/><path id="Path_30470" class="cls-1" d="m62.03,44.38h2.99l1.09,3.18,2.8-3.18h3.33l-2.43,9.06h-3.02l1.2-4.49-2.95,3.22h-.05l-1.22-3.22-1.2,4.49h-2.96l2.43-9.06Z"/><path id="Path_30471" class="cls-1" d="m73.22,44.38h7.73l-.67,2.49h-4.75l-.25.92h4.43l-.58,2.19h-4.43l-.27.98h4.82l-.66,2.49h-7.79l2.43-9.06Z"/><path id="Path_30472" class="cls-1" d="m21.81,55.35h5.04l3.66,7.68,2.07-7.68h5.34l-4.32,16.1h-4.78l-3.82-8-2.16,8h-5.34l4.33-16.1Z"/><path id="Path_30473" class="cls-1" d="m39.65,55.35h13.48l-1.24,4.6h-8.1l-.55,2.05h7.52l-1.13,4.19h-7.52l-1.4,5.27h-5.39l4.33-16.1Z"/><path id="Path_30474" class="cls-1" d="m57.29,59.9h-4.73l1.22-4.55h14.86l-1.22,4.55h-4.74l-3.1,11.55h-5.38l3.1-11.55Z"/><path id="Path_30475" class="cls-1" d="m65.46,68.85l3.08-3.68c1.48,1.38,3.4,2.19,5.43,2.28.71,0,1.17-.25,1.17-.71,0-.51-.3-.67-2.65-1.54-3.01-1.1-4.39-2.16-4.39-4.53,0-1.35.54-2.64,1.52-3.57,1.56-1.43,3.62-2.17,5.73-2.07,2.6-.06,5.14.79,7.18,2.41l-3.08,3.68c-1.31-1.1-2.94-1.73-4.65-1.79-.71,0-1.17.18-1.17.64s.37.6,2.58,1.4c2.76,1.04,4.49,2.12,4.49,4.62.03,1.42-.53,2.78-1.54,3.77-1.58,1.4-3.64,2.12-5.75,2-2.92.05-5.75-.99-7.93-2.92"/><path id="Path_30476" class="cls-1" d="m53.26,36.56h5.28c.68,0,1.23-.55,1.24-1.23,0-.12-.02-.24-.05-.35-.95-3.15-3.36-5.64-6.47-6.7v8.28Z"/><path id="Path_30477" class="cls-1" d="m46.73,28.28c-3.11,1.06-5.52,3.56-6.47,6.71-.19.65.18,1.33.83,1.52.11.03.23.05.35.05h5.29v-8.28Z"/><path id="Path_30478" class="cls-1" d="m42.45,29.27c-.99.88-1.83,1.91-2.48,3.06-.14.24-.44.33-.68.19-.06-.03-.11-.07-.15-.13-1.64-2.34-2.53-5.12-2.55-7.97,0-1.03.15-2.06.44-3.04.07-.27.35-.42.61-.35.18.05.32.2.36.39.6,2.76,2.22,5.7,4.38,7.05.24.14.31.45.16.69-.03.04-.06.08-.09.11h0Z"/><path id="Path_30479" class="cls-1" d="m57.56,29.27c.99.88,1.83,1.91,2.48,3.06.14.24.44.33.68.19.06-.03.11-.07.15-.13,1.64-2.34,2.54-5.12,2.56-7.97,0-1.03-.15-2.06-.45-3.04-.07-.27-.35-.42-.62-.35-.18.05-.32.2-.36.38-.6,2.76-2.22,5.7-4.38,7.05-.24.14-.31.45-.16.69.03.04.06.08.09.11h0Z"/><path id="Path_30480" class="cls-1" d="m50.49,26.74h-.94c-.96,0-1.75.78-1.75,1.75v8.05h4.43v-8.05c0-.96-.78-1.75-1.75-1.75h0Zm-.53,8.39c-.47,0-.85-.38-.85-.85s.38-.85.85-.85.85.38.85.85-.38.85-.85.85h0Zm0-2.48c-.47,0-.85-.38-.85-.85s.38-.85.85-.85.85.38.85.85-.38.85-.85.85h0Zm0-2.48c-.47,0-.85-.38-.85-.85s.38-.85.85-.85.85.38.85.85-.38.85-.85.85h0Z"/><path id="Path_30481" class="cls-1" d="m58.42,37.78h-16.86c-.97.05-1.71.87-1.67,1.83.04.9.76,1.62,1.67,1.67h16.86c.97-.05,1.71-.87,1.67-1.83-.04-.9-.76-1.62-1.67-1.67m-15.8,2.54c-.47,0-.85-.38-.85-.85s.38-.85.85-.85.85.38.85.85c0,.47-.38.85-.85.85Zm3.69,0c-.47,0-.85-.38-.85-.85s.38-.85.85-.85.85.38.85.85-.38.85-.85.85h0Zm3.69,0c-.47,0-.85-.38-.85-.85s.38-.85.85-.85.85.38.85.85-.38.85-.85.85h0Zm3.69,0c-.47,0-.85-.38-.85-.85,0-.47.38-.85.85-.85.47,0,.85.38.85.85,0,.47-.38.85-.85.85,0,0,0,0,0,0h0Zm3.69,0c-.47,0-.85-.38-.85-.85s.38-.85.85-.85.85.38.85.85-.38.85-.84.85h0Z"/></g></g></g></svg>