<?xml version="1.0" encoding="UTF-8"?><svg id="Layer_2" xmlns="http://www.w3.org/2000/svg" xmlns:xlink="http://www.w3.org/1999/xlink" viewBox="0 0 40 40"><defs><style>.cls-1{fill:none;}.cls-2{clip-path:url(#clippath);}.cls-3{fill:#ff870a;}</style><clipPath id="clippath"><rect class="cls-1" width="40" height="40"/></clipPath></defs><g id="Layer_1-2"><g id="Group_30264"><g class="cls-2"><g id="Group_30263"><path id="Path_31108" class="cls-3" d="m27.3,17.35c1.46.03,2.67-1.13,2.7-2.59,0-.04,0-.07,0-.11-.02-1.49-1.24-2.69-2.73-2.67-1.49.02-2.69,1.24-2.67,2.73,0,.7.29,1.36.77,1.86.51.51,1.2.79,1.92.77m-14.6,0c1.46.03,2.67-1.13,2.7-2.59,0-.04,0-.07,0-.11.03-1.46-1.13-2.67-2.59-2.7-.04,0-.07,0-.11,0-1.46-.03-2.67,1.13-2.7,2.59,0,.04,0,.07,0,.11-.03,1.46,1.13,2.67,2.59,2.7.04,0,.07,0,.11,0m7.3,22.65c-2.66.01-5.3-.52-7.75-1.58-4.81-2.04-8.63-5.87-10.67-10.67C.52,25.29-.02,22.63,0,19.95c-.01-2.66.52-5.3,1.58-7.75,1.01-2.37,2.47-4.53,4.3-6.35,1.84-1.81,4-3.26,6.38-4.27C14.71.52,17.37-.02,20.05,0c2.66-.01,5.3.52,7.75,1.58,4.79,2.02,8.6,5.84,10.62,10.62,1.06,2.46,1.59,5.12,1.58,7.8.01,2.66-.52,5.3-1.58,7.75-1.01,2.38-2.46,4.54-4.28,6.38-1.82,1.83-3.98,3.29-6.35,4.3-2.46,1.06-5.12,1.59-7.8,1.58m0-3c4.53.08,8.9-1.72,12.05-4.97,3.23-3.16,5.02-7.51,4.95-12.03.08-4.53-1.71-8.89-4.95-12.05-3.16-3.24-7.52-5.03-12.05-4.95-4.52-.07-8.87,1.72-12.03,4.95-3.26,3.15-5.06,7.52-4.97,12.05-.07,4.52,1.73,8.88,4.97,12.03,3.15,3.25,7.5,5.05,12.03,4.97m-8.25-7.25c.24,0,.47-.07.68-.2.21-.13.39-.3.52-.5.76-1.13,1.81-2.02,3.05-2.57,1.27-.58,2.65-.88,4.05-.88,1.38,0,2.74.3,3.98.9,1.23.59,2.29,1.48,3.08,2.6.15.18.34.34.55.45.2.12.42.19.65.2.42.03.81-.2,1-.58.2-.38.16-.84-.1-1.18-.97-1.5-2.31-2.73-3.9-3.55-3.31-1.72-7.25-1.73-10.57-.02-1.53.77-2.83,1.94-3.78,3.37-.32.38-.39.9-.18,1.35.18.38.56.61.98.6"/></g></g></g></g></svg>