<?xml version="1.0" encoding="UTF-8"?><svg id="Layer_2" xmlns="http://www.w3.org/2000/svg" viewBox="0 0 27 27"><defs><style>.cls-1{fill:#fff;}.cls-2{fill:#2081e2;}</style></defs><g id="Layer_1-2"><g id="Group_30158"><path id="Path_31074" class="cls-2" d="m27,13.5c0,7.46-6.04,13.5-13.5,13.5S0,20.96,0,13.5,6.04,0,13.5,0s13.5,6.04,13.5,13.5h0"/><path id="Path_31075" class="cls-1" d="m6.66,13.96l.06-.09,3.51-5.49c.04-.06.11-.07.17-.04.02.01.04.03.05.05.65,1.22.94,2.59.86,3.97-.16.53-.39,1.04-.69,1.51-.04.08-.08.15-.13.22-.02.03-.06.05-.1.05h-3.61c-.07,0-.12-.05-.12-.12,0-.02,0-.05.02-.06"/><path id="Path_31076" class="cls-1" d="m22.32,14.98v.87s-.03.09-.08.11c-.6.24-1.15.61-1.59,1.08-.99,1.38-1.74,3.34-3.43,3.34h-7.04c-2.5,0-4.52-2.03-4.52-4.53h0v-.08c0-.07.05-.12.12-.12h3.92c.07,0,.13.06.13.14,0,0,0,0,0,.01-.03.26.02.52.14.75.23.47.71.77,1.24.77h1.94v-1.52h-1.92c-.07,0-.12-.06-.12-.13,0-.02,0-.05.02-.07.02-.03.04-.07.07-.1.18-.26.44-.66.7-1.12.18-.31.34-.63.48-.97.03-.06.05-.12.07-.18.04-.1.08-.2.1-.3.03-.08.05-.17.07-.25.06-.29.1-.59.09-.89,0-.12,0-.25-.02-.37s-.02-.26-.04-.4c-.01-.12-.03-.23-.05-.35-.03-.18-.07-.35-.11-.53v-.07c-.05-.12-.08-.24-.11-.36-.11-.38-.24-.75-.37-1.09-.05-.14-.1-.27-.16-.4-.08-.2-.17-.38-.24-.55-.04-.08-.07-.15-.1-.22s-.08-.16-.11-.24c-.03-.06-.06-.11-.08-.17l-.24-.44s0-.08.03-.1c.02-.01.04-.01.06,0l1.48.4h.01l.2.05.22.06.08.02v-.88c0-.42.34-.76.76-.76.2,0,.4.08.54.23.14.15.22.34.22.55v1.31l.16.04s.03.01.04.02c.04.03.09.07.17.12.06.04.11.1.19.15.14.11.31.26.5.43.05.04.1.09.14.13.24.23.51.49.77.78.07.08.14.17.22.25s.15.18.22.26c.09.12.18.24.26.36.04.06.08.12.12.18.11.16.2.33.29.49.04.08.08.16.11.24.1.22.17.44.23.67.02.05.03.1.03.15h0c.01.08.02.15.03.22.02.23,0,.46-.04.69-.02.1-.05.2-.08.29-.03.09-.07.19-.11.29-.08.2-.18.39-.3.57-.04.07-.08.14-.13.2s-.1.14-.14.2c-.06.08-.13.17-.19.25-.06.08-.12.16-.19.24-.09.11-.18.21-.27.31-.06.07-.11.13-.18.19s-.12.13-.18.18c-.09.09-.17.17-.24.23l-.15.14s-.05.03-.08.03h-1.18v1.52h1.48c.33,0,.65-.12.9-.33.32-.28.63-.58.92-.9.02-.02.03-.03.06-.03l4.11-1.19c.06-.02.13.02.15.08,0,.01,0,.02,0,.03"/></g></g></svg>