<?xml version="1.0" encoding="UTF-8"?><svg id="Layer_2" xmlns="http://www.w3.org/2000/svg" viewBox="0 0 50.87 54.17"><defs><style>.cls-1{fill:#f48e37;}.cls-2{fill:#fff;}</style></defs><g id="Layer_1-2"><g id="Group_30204"><path id="Path_31083" class="cls-1" d="m1.78,36.1l3.69-23.39L24.93.51l3.05,1.03,17.23,11.17,4.87,26.71-1.7,2.48-22.5,11.5-5.15-1.84L.68,40.83l1.1-4.73Z"/><g id="Group_30203"><path id="Path_30465" class="cls-2" d="m25.44,54.17c-.84,0-1.67-.21-2.41-.62L2.52,43.18c-1.67-.95-2.65-2.77-2.51-4.68v-.09S3.9,14.86,3.9,14.86c.14-1.55.99-2.95,2.32-3.78L22.82.75c1.6-1,3.63-1,5.22,0l16.61,10.33c1.32.83,2.18,2.23,2.32,3.78l3.88,23.6v.05c.14,1.91-.83,3.73-2.5,4.68l-.04.02-20.47,10.34c-.74.41-1.56.62-2.41.62M3.53,41.34l20.51,10.36c.87.48,1.92.48,2.79,0l.04-.02,20.47-10.34c.93-.54,1.48-1.56,1.42-2.64l-3.88-23.59v-.05c-.07-.9-.56-1.72-1.33-2.2L26.93,2.54c-.92-.58-2.08-.58-3,0L7.33,12.87c-.77.48-1.26,1.3-1.33,2.2v.09s-3.89,23.54-3.89,23.54c-.06,1.08.49,2.09,1.42,2.63"/><path id="Path_31084" class="cls-2" d="m16.6,16.99c-1.39,0-2.72.55-3.69,1.53-.99.98-1.55,2.31-1.55,3.71.04,2.27,1.91,4.09,4.18,4.05.08,0,.17,0,.25-.01,1.39,0,2.72-.55,3.69-1.53.99-.98,1.55-2.31,1.55-3.71-.04-2.27-1.91-4.09-4.18-4.05-.08,0-.17,0-.25.01Zm-.61,6.65c-.86.05-1.59-.6-1.65-1.46,0-.07,0-.15,0-.22,0-.66.26-1.3.72-1.78.35-.36.82-.56,1.32-.56.86-.05,1.59.6,1.65,1.45,0,.08,0,.15,0,.23,0,.67-.26,1.3-.73,1.78-.35.36-.82.56-1.32.56h0Zm9.22,2.62c1.29.1,2.56-.32,3.53-1.17.69-.76,1.17-1.68,1.4-2.67l1.41-5.24h-3.03l-1.29,4.79c-.09.48-.31.93-.64,1.3-.25.25-.6.38-.95.37-.8,0-1.22-.37-1.22-1.12,0-.24.04-.47.1-.7l1.25-4.64h-3.03l-1.2,4.45c-.13.47-.19.95-.19,1.44,0,2.02,1.33,3.21,3.86,3.21h0Zm6.99-.17h2.98l1.72-6.4h2.62l.68-2.52h-8.23l-.67,2.52h2.62l-1.72,6.4Zm-24.27,10.91h2.95l1.2-4.43,2.11,4.43h2.65l2.39-8.91h-2.95l-1.15,4.25-2.03-4.25h-2.79l-2.39,8.91Zm15.93-9.09c-1.39,0-2.72.54-3.7,1.53-.99.98-1.55,2.31-1.55,3.71.04,2.27,1.91,4.09,4.19,4.05.08,0,.16,0,.24-.01,1.39,0,2.72-.55,3.69-1.53.99-.98,1.55-2.31,1.55-3.71-.04-2.27-1.91-4.09-4.19-4.05-.08,0-.16,0-.24.01Zm-.61,6.65c-.86.05-1.59-.6-1.65-1.45,0-.08,0-.15,0-.23,0-.67.26-1.31.72-1.79.35-.36.82-.56,1.32-.56.86-.05,1.59.6,1.65,1.46,0,.08,0,.15,0,.23,0,.67-.26,1.3-.73,1.78-.35.36-.82.56-1.32.56h0Zm6.02,2.51h2.6l2.75-4.43.38,4.43h2.6l5.32-8.98h-3.13l-2.41,4.28-.29-4.3h-2.57l-2.59,4.3-.11-4.28h-3.06l.51,8.98Z"/></g></g></g></svg>